G04 PROTEUS GERBER X2 FILE*
%TF.GenerationSoftware,Labcenter,Proteus,8.13-SP0-Build31525*%
%TF.CreationDate,2025-02-03T13:57:01+00:00*%
%TF.FileFunction,Legend,Top*%
%TF.FilePolarity,Positive*%
%TF.Part,Single*%
%TF.SameCoordinates,{a2927df7-da14-4721-b22e-cf69b3e8405d}*%
%FSLAX45Y45*%
%MOMM*%
G01*
%TA.AperFunction,Material*%
%ADD20C,0.203200*%
%TD.AperFunction*%
D20*
X+512000Y+2206000D02*
X+1528000Y+2206000D01*
X+512000Y+3222000D02*
X+1528000Y+3222000D01*
X+1528000Y+2206000D02*
X+1528000Y+3222000D01*
X+512000Y+2206000D02*
X+512000Y+3222000D01*
X+471360Y+2333000D02*
X+379920Y+2333000D01*
X+379920Y+2428250D01*
X+425640Y+2333000D02*
X+425640Y+2396500D01*
X+379920Y+2460000D02*
X+456120Y+2460000D01*
X+471360Y+2475875D01*
X+471360Y+2539375D01*
X+456120Y+2555250D01*
X+379920Y+2555250D01*
X+471360Y+2682250D02*
X+471360Y+2587000D01*
X+379920Y+2587000D01*
X+379920Y+2682250D01*
X+425640Y+2587000D02*
X+425640Y+2650500D01*
X+471360Y+2714000D02*
X+379920Y+2714000D01*
X+471360Y+2809250D01*
X+379920Y+2809250D01*
X+379920Y+2841000D02*
X+379920Y+2936250D01*
X+379920Y+2888625D02*
X+471360Y+2888625D01*
X+471360Y+3063250D02*
X+471360Y+2968000D01*
X+379920Y+2968000D01*
X+379920Y+3063250D01*
X+425640Y+2968000D02*
X+425640Y+3031500D01*
X+4948000Y+2097000D02*
X+5075000Y+2097000D01*
X+5075000Y+1081000D01*
X+4567000Y+1081000D01*
X+4567000Y+2097000D01*
X+4694000Y+2097000D01*
X+4821000Y+1970000D02*
X+4846876Y+1972436D01*
X+4870848Y+1979485D01*
X+4892438Y+1990762D01*
X+4911170Y+2005878D01*
X+4926569Y+2024446D01*
X+4938158Y+2046081D01*
X+4945460Y+2070394D01*
X+4948000Y+2097000D01*
X+4821000Y+1970000D02*
X+4794394Y+1972436D01*
X+4770081Y+1979485D01*
X+4748446Y+1990762D01*
X+4729878Y+2005878D01*
X+4714762Y+2024446D01*
X+4703485Y+2046081D01*
X+4696436Y+2070394D01*
X+4694000Y+2097000D01*
X+4694000Y+2229080D02*
X+4694000Y+2152880D01*
X+4709875Y+2137640D01*
X+4773375Y+2137640D01*
X+4789250Y+2152880D01*
X+4789250Y+2229080D01*
X+4852750Y+2198600D02*
X+4884500Y+2229080D01*
X+4884500Y+2137640D01*
X+2950000Y+2703000D02*
X+2950000Y+2576000D01*
X+2886500Y+2068000D02*
X+3013500Y+2068000D01*
X+3013500Y+2576000D01*
X+2886500Y+2576000D01*
X+2886500Y+2068000D01*
X+2950000Y+2068000D02*
X+2950000Y+1941000D01*
X+3069380Y+2083875D02*
X+3054140Y+2099750D01*
X+3054140Y+2147375D01*
X+3069380Y+2163250D01*
X+3084620Y+2163250D01*
X+3099860Y+2147375D01*
X+3099860Y+2099750D01*
X+3115100Y+2083875D01*
X+3145580Y+2083875D01*
X+3145580Y+2163250D01*
X+3130340Y+2242625D02*
X+3130340Y+2258500D01*
X+3145580Y+2258500D01*
X+3145580Y+2242625D01*
X+3130340Y+2242625D01*
X+3069380Y+2337875D02*
X+3054140Y+2353750D01*
X+3054140Y+2401375D01*
X+3069380Y+2417250D01*
X+3084620Y+2417250D01*
X+3099860Y+2401375D01*
X+3099860Y+2353750D01*
X+3115100Y+2337875D01*
X+3145580Y+2337875D01*
X+3145580Y+2417250D01*
X+3054140Y+2449000D02*
X+3145580Y+2449000D01*
X+3054140Y+2544250D02*
X+3099860Y+2496625D01*
X+3145580Y+2544250D01*
X+3099860Y+2449000D02*
X+3099860Y+2496625D01*
X+2823000Y+833000D02*
X+3077000Y+833000D01*
X+3077000Y+1341000D01*
X+2823000Y+1341000D01*
X+2823000Y+833000D01*
X+2690920Y+896500D02*
X+2782360Y+896500D01*
X+2782360Y+991750D01*
X+2782360Y+1118750D02*
X+2782360Y+1023500D01*
X+2690920Y+1023500D01*
X+2690920Y+1118750D01*
X+2736640Y+1023500D02*
X+2736640Y+1087000D01*
X+2782360Y+1150500D02*
X+2690920Y+1150500D01*
X+2690920Y+1214000D01*
X+2721400Y+1245750D01*
X+2751880Y+1245750D01*
X+2782360Y+1214000D01*
X+2782360Y+1150500D01*
X+1458000Y+1594000D02*
X+442000Y+1594000D01*
X+1458000Y+578000D02*
X+442000Y+578000D01*
X+442000Y+1594000D02*
X+442000Y+578000D01*
X+1458000Y+1594000D02*
X+1458000Y+578000D01*
X+1498640Y+895500D02*
X+1590080Y+895500D01*
X+1590080Y+990750D01*
X+1590080Y+1022500D02*
X+1498640Y+1022500D01*
X+1498640Y+1086000D01*
X+1529120Y+1117750D01*
X+1559600Y+1117750D01*
X+1590080Y+1086000D01*
X+1590080Y+1022500D01*
X+1590080Y+1149500D02*
X+1498640Y+1149500D01*
X+1498640Y+1228875D01*
X+1513880Y+1244750D01*
X+1529120Y+1244750D01*
X+1544360Y+1228875D01*
X+1544360Y+1149500D01*
X+1544360Y+1228875D02*
X+1559600Y+1244750D01*
X+1590080Y+1244750D01*
X+2044000Y+3892000D02*
X+2044000Y+4908000D01*
X+520000Y+3892000D02*
X+520000Y+4908000D01*
X+2044000Y+4908000D02*
X+520000Y+4908000D01*
X+520000Y+3892000D02*
X+2044000Y+3892000D01*
X+1091500Y+3759920D02*
X+1091500Y+3851360D01*
X+1170875Y+3851360D01*
X+1186750Y+3836120D01*
X+1186750Y+3820880D01*
X+1170875Y+3805640D01*
X+1091500Y+3805640D01*
X+1218500Y+3820880D02*
X+1250250Y+3851360D01*
X+1282000Y+3851360D01*
X+1313750Y+3820880D01*
X+1313750Y+3790400D01*
X+1282000Y+3759920D01*
X+1250250Y+3759920D01*
X+1218500Y+3790400D01*
X+1218500Y+3820880D01*
X+1345500Y+3851360D02*
X+1440750Y+3851360D01*
X+1393125Y+3851360D02*
X+1393125Y+3759920D01*
X+4857000Y+2730000D02*
X+4984000Y+2730000D01*
X+4984000Y+2666500D02*
X+5492000Y+2666500D01*
X+5492000Y+2793500D01*
X+4984000Y+2793500D01*
X+4984000Y+2666500D01*
X+5492000Y+2730000D02*
X+5619000Y+2730000D01*
X+5111000Y+2834140D02*
X+5111000Y+2925580D01*
X+5190375Y+2925580D01*
X+5206250Y+2910340D01*
X+5206250Y+2895100D01*
X+5190375Y+2879860D01*
X+5111000Y+2879860D01*
X+5190375Y+2879860D02*
X+5206250Y+2864620D01*
X+5206250Y+2834140D01*
X+5333250Y+2864620D02*
X+5238000Y+2864620D01*
X+5301500Y+2925580D01*
X+5301500Y+2834140D01*
X+4465022Y+637978D02*
X+4338022Y+637978D01*
X+3830022Y+574478D02*
X+4338022Y+574478D01*
X+4338022Y+701478D01*
X+3830022Y+701478D01*
X+3830022Y+574478D01*
X+3830022Y+637978D02*
X+3703022Y+637978D01*
X+3957022Y+442398D02*
X+3957022Y+533838D01*
X+4036397Y+533838D01*
X+4052272Y+518598D01*
X+4052272Y+503358D01*
X+4036397Y+488118D01*
X+3957022Y+488118D01*
X+4036397Y+488118D02*
X+4052272Y+472878D01*
X+4052272Y+442398D01*
X+4179272Y+533838D02*
X+4099897Y+533838D01*
X+4099897Y+503358D01*
X+4163397Y+503358D01*
X+4179272Y+488118D01*
X+4179272Y+457638D01*
X+4163397Y+442398D01*
X+4115772Y+442398D01*
X+4099897Y+457638D01*
X+3465022Y+957978D02*
X+3472538Y+983854D01*
X+3494192Y+1007826D01*
X+3528646Y+1029416D01*
X+3574560Y+1048148D01*
X+3630594Y+1063547D01*
X+3695408Y+1075136D01*
X+3767664Y+1082438D01*
X+3846022Y+1084978D01*
X+4227022Y+957978D02*
X+4219402Y+983854D01*
X+4197494Y+1007826D01*
X+4162728Y+1029416D01*
X+4116532Y+1048148D01*
X+4060334Y+1063547D01*
X+3995564Y+1075136D01*
X+3923651Y+1082438D01*
X+3846022Y+1084978D01*
X+4227022Y+957978D02*
X+4219402Y+932102D01*
X+4197494Y+908130D01*
X+4162728Y+886540D01*
X+4116532Y+867808D01*
X+4060334Y+852409D01*
X+3995564Y+840820D01*
X+3923651Y+833518D01*
X+3846022Y+830978D01*
X+3465022Y+957978D02*
X+3472538Y+932102D01*
X+3494192Y+908130D01*
X+3528646Y+886540D01*
X+3574560Y+867808D01*
X+3630594Y+852409D01*
X+3695408Y+840820D01*
X+3767664Y+833518D01*
X+3846022Y+830978D01*
X+3814272Y+1140858D02*
X+3798397Y+1125618D01*
X+3750772Y+1125618D01*
X+3719022Y+1156098D01*
X+3719022Y+1186578D01*
X+3750772Y+1217058D01*
X+3798397Y+1217058D01*
X+3814272Y+1201818D01*
X+3877772Y+1186578D02*
X+3909522Y+1217058D01*
X+3909522Y+1125618D01*
X+3410000Y+2663000D02*
X+3410000Y+2536000D01*
X+3346500Y+2028000D02*
X+3473500Y+2028000D01*
X+3473500Y+2536000D01*
X+3346500Y+2536000D01*
X+3346500Y+2028000D01*
X+3410000Y+2028000D02*
X+3410000Y+1901000D01*
X+3605580Y+2155000D02*
X+3514140Y+2155000D01*
X+3514140Y+2234375D01*
X+3529380Y+2250250D01*
X+3544620Y+2250250D01*
X+3559860Y+2234375D01*
X+3559860Y+2155000D01*
X+3559860Y+2234375D02*
X+3575100Y+2250250D01*
X+3605580Y+2250250D01*
X+3544620Y+2313750D02*
X+3514140Y+2345500D01*
X+3605580Y+2345500D01*
X+5720000Y+1883000D02*
X+5720000Y+1756000D01*
X+5656500Y+1248000D02*
X+5783500Y+1248000D01*
X+5783500Y+1756000D01*
X+5656500Y+1756000D01*
X+5656500Y+1248000D01*
X+5720000Y+1248000D02*
X+5720000Y+1121000D01*
X+5915580Y+1375000D02*
X+5824140Y+1375000D01*
X+5824140Y+1454375D01*
X+5839380Y+1470250D01*
X+5854620Y+1470250D01*
X+5869860Y+1454375D01*
X+5869860Y+1375000D01*
X+5869860Y+1454375D02*
X+5885100Y+1470250D01*
X+5915580Y+1470250D01*
X+5839380Y+1517875D02*
X+5824140Y+1533750D01*
X+5824140Y+1581375D01*
X+5839380Y+1597250D01*
X+5854620Y+1597250D01*
X+5869860Y+1581375D01*
X+5869860Y+1533750D01*
X+5885100Y+1517875D01*
X+5915580Y+1517875D01*
X+5915580Y+1597250D01*
X+3890000Y+2673000D02*
X+3890000Y+2546000D01*
X+3826500Y+2038000D02*
X+3953500Y+2038000D01*
X+3953500Y+2546000D01*
X+3826500Y+2546000D01*
X+3826500Y+2038000D01*
X+3890000Y+2038000D02*
X+3890000Y+1911000D01*
X+4085580Y+2165000D02*
X+3994140Y+2165000D01*
X+3994140Y+2244375D01*
X+4009380Y+2260250D01*
X+4024620Y+2260250D01*
X+4039860Y+2244375D01*
X+4039860Y+2165000D01*
X+4039860Y+2244375D02*
X+4055100Y+2260250D01*
X+4085580Y+2260250D01*
X+4009380Y+2307875D02*
X+3994140Y+2323750D01*
X+3994140Y+2371375D01*
X+4009380Y+2387250D01*
X+4024620Y+2387250D01*
X+4039860Y+2371375D01*
X+4055100Y+2387250D01*
X+4070340Y+2387250D01*
X+4085580Y+2371375D01*
X+4085580Y+2323750D01*
X+4070340Y+2307875D01*
X+4039860Y+2339625D02*
X+4039860Y+2371375D01*
X+3599200Y+3134900D02*
X+4107200Y+3134900D01*
X+3523000Y+3300000D02*
X+3527762Y+3261702D01*
X+3542050Y+3222212D01*
X+3565862Y+3180342D01*
X+3599200Y+3134900D01*
X+3523000Y+3300000D02*
X+3525631Y+3364918D01*
X+3542112Y+3424953D01*
X+3571039Y+3478942D01*
X+3611007Y+3525722D01*
X+3660612Y+3564131D01*
X+3718449Y+3593005D01*
X+3783113Y+3611183D01*
X+3853200Y+3617500D01*
X+4183400Y+3300000D02*
X+4178638Y+3261702D01*
X+4164350Y+3222212D01*
X+4140538Y+3180342D01*
X+4107200Y+3134900D01*
X+4183400Y+3300000D02*
X+4180769Y+3364918D01*
X+4164288Y+3424953D01*
X+4135361Y+3478942D01*
X+4095393Y+3525722D01*
X+4045788Y+3564131D01*
X+3987951Y+3593005D01*
X+3923287Y+3611183D01*
X+3853200Y+3617500D01*
X+3726200Y+3719100D02*
X+3757950Y+3749580D01*
X+3789700Y+3749580D01*
X+3821450Y+3719100D01*
X+3821450Y+3688620D01*
X+3789700Y+3658140D01*
X+3757950Y+3658140D01*
X+3726200Y+3688620D01*
X+3726200Y+3719100D01*
X+3789700Y+3688620D02*
X+3821450Y+3658140D01*
X+3884950Y+3719100D02*
X+3916700Y+3749580D01*
X+3916700Y+3658140D01*
X+5742000Y+3602000D02*
X+5742000Y+4618000D01*
X+4726000Y+3602000D02*
X+4726000Y+4618000D01*
X+5742000Y+4618000D02*
X+4726000Y+4618000D01*
X+5742000Y+3602000D02*
X+4726000Y+3602000D01*
X+4853000Y+3469920D02*
X+4853000Y+3561360D01*
X+4932375Y+3561360D01*
X+4948250Y+3546120D01*
X+4948250Y+3530880D01*
X+4932375Y+3515640D01*
X+4948250Y+3500400D01*
X+4948250Y+3485160D01*
X+4932375Y+3469920D01*
X+4853000Y+3469920D01*
X+4853000Y+3515640D02*
X+4932375Y+3515640D01*
X+4980000Y+3561360D02*
X+4980000Y+3485160D01*
X+4995875Y+3469920D01*
X+5059375Y+3469920D01*
X+5075250Y+3485160D01*
X+5075250Y+3561360D01*
X+5107000Y+3561360D02*
X+5202250Y+3561360D01*
X+5107000Y+3469920D01*
X+5202250Y+3469920D01*
X+5234000Y+3561360D02*
X+5329250Y+3561360D01*
X+5234000Y+3469920D01*
X+5329250Y+3469920D01*
X+5456250Y+3469920D02*
X+5361000Y+3469920D01*
X+5361000Y+3561360D01*
X+5456250Y+3561360D01*
X+5361000Y+3515640D02*
X+5424500Y+3515640D01*
X+5488000Y+3469920D02*
X+5488000Y+3561360D01*
X+5567375Y+3561360D01*
X+5583250Y+3546120D01*
X+5583250Y+3530880D01*
X+5567375Y+3515640D01*
X+5488000Y+3515640D01*
X+5567375Y+3515640D02*
X+5583250Y+3500400D01*
X+5583250Y+3469920D01*
M02*
